<svg width="900" height="1200" viewBox="0 0 900 1200" fill="none" xmlns="http://www.w3.org/2000/svg">
  <defs>
    <linearGradient id="bg" x1="0" y1="0" x2="900" y2="1200" gradientUnits="userSpaceOnUse">
      <stop stop-color="#111827"/>
      <stop offset="1" stop-color="#374151"/>
    </linearGradient>
    <pattern id="grid" width="40" height="40" patternUnits="userSpaceOnUse">
      <path d="M 40 0 L 0 0 0 40" fill="none" stroke="#9CA3AF" stroke-opacity="0.18" stroke-width="1"/>
    </pattern>
  </defs>

  <rect width="900" height="1200" fill="url(#bg)"/>
  <rect width="900" height="1200" fill="url(#grid)"/>

  <rect x="110" y="140" width="680" height="920" rx="8" stroke="#D1D5DB" stroke-opacity="0.55" stroke-width="2"/>
  <rect x="170" y="220" width="560" height="760" rx="4" stroke="#E5E7EB" stroke-opacity="0.45" stroke-width="1.5"/>

  <line x1="170" y1="420" x2="730" y2="420" stroke="#F3F4F6" stroke-opacity="0.35"/>
  <line x1="170" y1="620" x2="730" y2="620" stroke="#F3F4F6" stroke-opacity="0.35"/>
  <line x1="170" y1="820" x2="730" y2="820" stroke="#F3F4F6" stroke-opacity="0.35"/>

  <line x1="310" y1="220" x2="310" y2="980" stroke="#F3F4F6" stroke-opacity="0.30"/>
  <line x1="450" y1="220" x2="450" y2="980" stroke="#F3F4F6" stroke-opacity="0.30"/>
  <line x1="590" y1="220" x2="590" y2="980" stroke="#F3F4F6" stroke-opacity="0.30"/>

  <circle cx="730" cy="220" r="110" fill="#93C5FD" fill-opacity="0.12"/>
  <circle cx="170" cy="980" r="130" fill="#A7F3D0" fill-opacity="0.10"/>

  <text x="170" y="108" fill="#E5E7EB" font-family="Georgia, serif" font-size="42" font-weight="700">Architectural Detail</text>
</svg>
